<svg width="125" height="21" viewBox="0 0 125 21" fill="none" xmlns="http://www.w3.org/2000/svg">
<path fill-rule="evenodd" clip-rule="evenodd" d="M11.8068 8.12516C11.1057 8.30088 10.9921 8.59962 11.6264 8.59962C11.9544 8.59962 12.708 8.90292 13.301 9.27386C16.2777 11.1356 16.221 15.8134 13.2012 17.4704C12.4259 17.8959 10.1147 17.8768 8.12951 17.4285C4.3016 16.5638 2.18277 16.8391 0.739209 18.3882C0.302775 18.8566 -0.0288826 19.2661 0.00199247 19.2983C0.0328675 19.3305 0.595192 19.1605 1.25134 18.9205C3.12376 18.2357 5.15355 18.3135 7.62375 19.1645C10.3533 20.1047 12.6701 20.2499 14.7003 19.6076C15.9027 19.2271 16.3192 18.9678 17.198 18.0525C18.3535 16.8492 18.8007 15.946 18.9945 14.4249C19.4105 11.1595 16.515 7.92558 13.2434 8.0013C12.6725 8.01458 12.0259 8.07018 11.8068 8.12516ZM8.96652 9.84334C7.26301 10.925 6.98454 13.7946 8.58407 13.783C9.23424 13.7782 9.42327 13.5791 9.91707 12.3781C10.7423 10.3715 11.8522 9.95391 13.0484 11.1997C13.8165 11.9997 13.7948 12.4872 13.0247 11.7337C12.5807 11.2993 11.4584 11.0717 11.1816 11.3599C11.1148 11.4296 11.2953 11.7777 11.5829 12.1335C12.4436 13.1992 12.2544 15.2912 11.2208 16.1368C10.773 16.503 12.2116 16.0177 12.7438 15.6232C13.5191 15.0481 13.9444 14.1019 13.9444 12.9513C13.9444 11.5551 13.2514 10.3634 12.0658 9.72093C11.2756 9.29274 9.7378 9.35352 8.96652 9.84334Z" fill="#4b0404"/>
<path d="M26.7544 20L24.6944 6H26.8544L28.5344 18.54H28.8544L31.0144 6H34.7944L36.9544 18.54H37.2744L38.9344 6H41.0944L39.0344 20H35.2544L33.0544 7.28H32.7344L30.5544 20H26.7544ZM47.7135 20.28C46.7268 20.28 45.8468 20.08 45.0735 19.68C44.3135 19.2667 43.7135 18.68 43.2735 17.92C42.8335 17.16 42.6135 16.26 42.6135 15.22V14.92C42.6135 13.88 42.8335 12.9867 43.2735 12.24C43.7135 11.48 44.3135 10.8933 45.0735 10.48C45.8468 10.0667 46.7268 9.86 47.7135 9.86C48.7002 9.86 49.5802 10.0667 50.3535 10.48C51.1268 10.8933 51.7335 11.48 52.1735 12.24C52.6135 12.9867 52.8335 13.88 52.8335 14.92V15.22C52.8335 16.26 52.6135 17.16 52.1735 17.92C51.7335 18.68 51.1268 19.2667 50.3535 19.68C49.5802 20.08 48.7002 20.28 47.7135 20.28ZM47.7135 18.44C48.6202 18.44 49.3535 18.1533 49.9135 17.58C50.4868 16.9933 50.7735 16.1867 50.7735 15.16V14.98C50.7735 13.9533 50.4935 13.1533 49.9335 12.58C49.3735 11.9933 48.6335 11.7 47.7135 11.7C46.8202 11.7 46.0868 11.9933 45.5135 12.58C44.9535 13.1533 44.6735 13.9533 44.6735 14.98V15.16C44.6735 16.1867 44.9535 16.9933 45.5135 17.58C46.0868 18.1533 46.8202 18.44 47.7135 18.44ZM55.3982 20V10.14H57.4182V11.3H57.7382C57.8982 10.8867 58.1515 10.5867 58.4982 10.4C58.8582 10.2 59.2982 10.1 59.8182 10.1H60.9982V11.96H59.7382C59.0715 11.96 58.5248 12.1467 58.0982 12.52C57.6715 12.88 57.4582 13.44 57.4582 14.2V20H55.3982ZM63.1325 20V6H65.1925V13.98H65.5125L69.3925 10.14H72.1325L67.1525 14.92L72.2925 20H69.5725L65.5125 15.9H65.1925V20H63.1325ZM94.9425 20.28C94.2359 20.28 93.6025 20.16 93.0425 19.92C92.4959 19.68 92.0559 19.3267 91.7225 18.86C91.4025 18.3933 91.2425 17.8267 91.2425 17.16C91.2425 16.48 91.4025 15.92 91.7225 15.48C92.0559 15.0267 92.5025 14.6867 93.0625 14.46C93.6359 14.2333 94.2825 14.12 95.0025 14.12H98.0025V13.48C98.0025 12.9067 97.8292 12.4467 97.4825 12.1C97.1359 11.7533 96.6025 11.58 95.8825 11.58C95.1759 11.58 94.6359 11.7467 94.2625 12.08C93.8892 12.4133 93.6425 12.8467 93.5225 13.38L91.6025 12.76C91.7625 12.2267 92.0159 11.7467 92.3625 11.32C92.7225 10.88 93.1959 10.5267 93.7825 10.26C94.3692 9.99333 95.0759 9.86 95.9025 9.86C97.1825 9.86 98.1892 10.1867 98.9225 10.84C99.6559 11.4933 100.023 12.42 100.023 13.62V17.68C100.023 18.08 100.209 18.28 100.583 18.28H101.423V20H99.8825C99.4159 20 99.0359 19.88 98.7425 19.64C98.4492 19.4 98.3025 19.0733 98.3025 18.66V18.6H98.0025C97.8959 18.8 97.7359 19.0333 97.5225 19.3C97.3092 19.5667 96.9959 19.8 96.5825 20C96.1692 20.1867 95.6225 20.28 94.9425 20.28ZM95.2425 18.58C96.0692 18.58 96.7359 18.3467 97.2425 17.88C97.7492 17.4 98.0025 16.7467 98.0025 15.92V15.72H95.1225C94.5759 15.72 94.1359 15.84 93.8025 16.08C93.4692 16.3067 93.3025 16.6467 93.3025 17.1C93.3025 17.5533 93.4759 17.9133 93.8225 18.18C94.1692 18.4467 94.6425 18.58 95.2425 18.58ZM105.159 20L101.839 10.14H104.019L106.639 18.48H106.959L109.579 10.14H111.759L108.439 20H105.159ZM117.926 20.28C116.926 20.28 116.053 20.0733 115.306 19.66C114.559 19.2333 113.973 18.64 113.546 17.88C113.133 17.1067 112.926 16.2133 112.926 15.2V14.96C112.926 13.9333 113.133 13.04 113.546 12.28C113.959 11.5067 114.533 10.9133 115.266 10.5C116.013 10.0733 116.873 9.86 117.846 9.86C118.793 9.86 119.619 10.0733 120.326 10.5C121.046 10.9133 121.606 11.4933 122.006 12.24C122.406 12.9867 122.606 13.86 122.606 14.86V15.64H115.026C115.053 16.5067 115.339 17.2 115.886 17.72C116.446 18.2267 117.139 18.48 117.966 18.48C118.739 18.48 119.319 18.3067 119.706 17.96C120.106 17.6133 120.413 17.2133 120.626 16.76L122.326 17.64C122.139 18.0133 121.866 18.4067 121.506 18.82C121.159 19.2333 120.699 19.58 120.126 19.86C119.553 20.14 118.819 20.28 117.926 20.28ZM115.046 14.06H120.506C120.453 13.3133 120.186 12.7333 119.706 12.32C119.226 11.8933 118.599 11.68 117.826 11.68C117.053 11.68 116.419 11.8933 115.926 12.32C115.446 12.7333 115.153 13.3133 115.046 14.06Z" fill="#4b0404"/>
<path d="M75.3482 20L73.2882 6H75.4482L77.1282 18.54H77.4482L79.6082 6H83.3882L85.5482 18.54H85.8682L87.5282 6H89.6882L87.6282 20H83.8482L81.6482 7.28H81.3282L79.1482 20H75.3482Z" fill="#c60c0c"/>
</svg>
